<?xml version="1.0" encoding="UTF-8"?>
<svg width="24px" height="24px" viewBox="0 0 24 24" version="1.1" xmlns="http://www.w3.org/2000/svg">
    <g stroke="none" stroke-width="1" fill="none" fill-rule="evenodd">
        <path d="M3,3 L21,3 C21.5522847,3 22,3.44771525 22,4 L22,20 C22,20.5522847 21.5522847,21 21,21 L3,21 C2.44771525,21 2,20.5522847 2,20 L2,4 C2,3.44771525 2.44771525,3 3,3 Z M4,5 L4,19 L20,19 L20,5 L4,5 Z" fill="#FF69B4" fill-rule="nonzero"/>
        <path d="M6,8 L18,8 C18.5522847,8 19,8.44771525 19,9 C19,9.55228475 18.5522847,10 18,10 L6,10 C5.44771525,10 5,9.55228475 5,9 C5,8.44771525 5.44771525,8 6,8 Z" fill="#FF69B4" fill-rule="nonzero"/>
        <path d="M6,12 L14,12 C14.5522847,12 15,12.4477153 15,13 C15,13.5522847 14.5522847,14 14,14 L6,14 C5.44771525,14 5,13.5522847 5,13 C5,12.4477153 5.44771525,12 6,12 Z" fill="#FF69B4" fill-rule="nonzero"/>
        <path d="M6,16 L10,16 C10.5522847,16 11,16.4477153 11,17 C11,17.5522847 10.5522847,18 10,18 L6,18 C5.44771525,18 5,17.5522847 5,17 C5,16.4477153 5.44771525,16 6,16 Z" fill="#FF69B4" fill-rule="nonzero"/>
    </g>
</svg>
